<?xml version="1.0" standalone="no"?>
<!DOCTYPE svg PUBLIC "-//W3C//DTD SVG 20010904//EN"
 "http://www.w3.org/TR/2001/REC-SVG-20010904/DTD/svg10.dtd">
<svg version="1.0" xmlns="http://www.w3.org/2000/svg"
 width="1312.000000pt" height="1312.000000pt" viewBox="0 0 1312.000000 1312.000000"
 preserveAspectRatio="xMidYMid meet">
<metadata>
Created by potrace 1.11, written by Peter Selinger 2001-2013
</metadata>
<g transform="translate(0.000000,1312.000000) scale(0.100000,-0.100000)"
fill="#000000" stroke="none">
<path d="M8657 13113 c-1 -1 -29 -4 -62 -7 -145 -14 -240 -39 -384 -102 -190
-84 -374 -243 -496 -429 -44 -66 -163 -305 -613 -1225 -226 -463 -392 -803
-778 -1587 -103 -210 -129 -256 -129 -225 0 9 -24 89 -38 127 -7 17 -12 35
-13 41 -1 7 -23 81 -49 165 -26 85 -48 159 -50 164 -1 6 -5 17 -8 25 -6 14
-40 128 -42 140 -2 10 -46 156 -52 170 -3 8 -7 20 -8 25 -2 6 -26 87 -55 180
-28 94 -67 220 -85 280 -92 309 -212 507 -395 656 -23 19 -47 39 -54 44 -71
65 -277 169 -401 202 -115 30 -227 46 -325 46 -51 0 -174 -11 -210 -19 -14 -2
-37 -6 -51 -8 -44 -7 -206 -64 -269 -96 -58 -29 -170 -97 -180 -109 -3 -3 -21
-18 -40 -32 -59 -44 -146 -136 -210 -220 -56 -76 -175 -297 -165 -307 3 -3 1
-10 -4 -16 -9 -11 -39 -118 -46 -165 -2 -14 -7 -37 -10 -51 -11 -44 -14 -273
-4 -330 6 -30 12 -73 15 -94 3 -22 10 -48 15 -57 5 -10 9 -29 9 -43 0 -14 4
-27 9 -30 4 -3 12 -20 16 -38 4 -18 9 -38 10 -44 2 -7 13 -45 25 -85 24 -80
27 -91 28 -99 0 -3 6 -18 12 -35 10 -25 41 -122 55 -175 5 -19 42 -138 90
-295 20 -66 38 -124 39 -130 1 -5 4 -14 7 -20 5 -9 17 -48 24 -80 2 -5 24 -77
49 -160 26 -82 49 -159 51 -169 3 -10 9 -35 15 -55 15 -47 17 -55 19 -63 1 -4
9 -27 17 -50 9 -24 17 -51 19 -60 2 -9 20 -68 39 -130 20 -62 36 -119 36 -126
0 -7 4 -20 10 -30 5 -9 23 -64 40 -122 69 -230 92 -306 97 -320 3 -8 8 -24 10
-35 2 -11 10 -38 18 -60 7 -22 26 -80 40 -130 14 -49 30 -101 35 -115 5 -14
19 -59 31 -100 12 -41 30 -102 41 -135 11 -33 21 -67 23 -75 2 -8 20 -67 40
-130 19 -63 37 -122 39 -130 6 -26 57 -194 63 -210 3 -8 7 -19 8 -25 7 -28 48
-163 55 -180 8 -20 50 -156 55 -179 1 -6 5 -19 8 -28 4 -10 9 -25 12 -33 2 -8
-13 -49 -34 -92 -128 -259 -221 -454 -221 -463 0 -5 -4 -10 -10 -10 -5 0 -10
-4 -10 -10 0 -5 -57 -126 -127 -267 -69 -142 -127 -260 -127 -263 -1 -3 -37
-77 -81 -165 -43 -88 -80 -166 -81 -173 -1 -8 -10 -22 -18 -31 -9 -10 -16 -20
-16 -24 0 -8 -90 -196 -275 -572 -349 -713 -363 -742 -385 -810 -7 -22 -17
-46 -23 -52 -5 -7 -7 -13 -4 -13 3 0 -1 -24 -8 -52 -25 -97 -30 -142 -29 -288
1 -212 32 -343 126 -535 102 -208 272 -387 478 -501 117 -66 277 -124 380
-139 14 -2 45 -6 70 -10 95 -15 311 -4 388 19 9 3 28 7 42 10 76 13 255 88
328 137 24 16 47 29 53 29 5 0 9 5 9 10 0 6 5 10 10 10 14 0 62 41 161 140 96
96 174 208 244 355 27 55 79 162 116 238 l68 137 22 -72 c12 -40 24 -79 25
-85 1 -7 11 -41 22 -75 11 -35 26 -83 33 -108 15 -54 14 -52 22 -70 7 -19 28
-87 31 -103 2 -7 6 -19 9 -27 3 -8 18 -55 32 -105 45 -153 81 -274 125 -415
23 -74 44 -144 47 -155 3 -11 7 -27 10 -35 3 -8 7 -19 8 -25 2 -5 24 -80 50
-165 26 -85 53 -175 61 -200 7 -25 27 -90 44 -145 17 -55 33 -111 36 -124 3
-13 10 -34 16 -45 6 -12 10 -22 9 -24 -3 -3 47 -171 59 -197 5 -11 12 -31 16
-45 13 -49 103 -218 146 -275 47 -62 153 -173 209 -220 113 -94 329 -207 440
-229 8 -2 21 -6 29 -9 46 -17 161 -30 275 -32 543 -10 1010 334 1169 858 38
124 50 213 50 352 0 106 -7 164 -29 263 -3 12 -7 32 -10 43 -2 12 -15 56 -28
98 -37 118 -67 217 -72 237 -3 11 -13 46 -24 79 -11 33 -35 112 -55 175 -58
192 -155 510 -181 595 -13 44 -43 141 -65 215 -23 74 -45 146 -50 160 -10 29
-91 299 -95 314 -1 6 -5 18 -8 26 -3 8 -19 60 -36 115 -16 55 -44 147 -62 205
-18 58 -34 107 -34 110 -1 3 -9 32 -20 65 -10 33 -19 62 -20 65 -18 65 -29
102 -40 135 -7 22 -25 81 -40 130 -15 50 -42 137 -60 195 -18 58 -42 139 -54
180 -12 41 -26 86 -31 100 -4 14 -18 59 -30 100 -13 41 -26 84 -31 95 -7 16
-23 74 -34 120 -1 6 -5 17 -9 25 -3 8 -22 69 -42 135 -63 212 -72 239 -83 268
-6 15 -9 27 -6 27 2 0 -2 15 -10 33 -7 17 -14 35 -14 39 -1 4 -3 13 -6 20 -4
13 -38 129 -40 138 -2 7 -45 152 -50 168 -3 7 -5 13 -5 15 0 1 -18 57 -39 125
l-39 122 49 98 c27 53 49 102 49 109 0 6 3 13 8 15 6 2 42 70 47 88 2 5 103
212 360 735 92 187 207 422 256 521 49 100 89 187 89 193 0 6 5 11 10 11 6 0
10 9 10 20 0 11 5 20 10 20 6 0 10 5 10 10 0 6 52 116 115 245 63 129 114 236
112 238 -1 1 8 16 21 34 12 17 22 34 22 38 0 13 64 140 74 147 6 4 8 8 4 8 -4
0 26 66 66 148 41 81 129 260 196 397 67 138 181 369 252 515 72 146 180 366
240 490 153 313 187 382 198 394 4 6 8 15 9 19 0 4 37 83 81 175 45 92 98 201
118 242 20 41 40 78 45 81 5 3 8 9 7 13 -1 4 24 60 55 124 85 175 85 174 85
189 0 7 5 13 12 13 6 0 9 3 5 6 -3 3 4 31 15 62 11 32 21 68 24 82 2 14 9 48
15 75 17 77 19 290 4 380 -22 140 -56 248 -113 360 -47 92 -64 120 -116 190
-195 260 -506 437 -826 470 -65 7 -179 12 -183 8z m224 -378 c152 -31 306
-114 414 -221 92 -91 107 -113 173 -249 60 -123 76 -198 76 -355 0 -132 -11
-203 -45 -285 -7 -16 -13 -34 -14 -40 -2 -5 -62 -131 -135 -280 -239 -487
-352 -720 -361 -740 -5 -11 -13 -27 -19 -35 -5 -8 -59 -116 -119 -240 -60
-124 -170 -351 -246 -505 -76 -154 -186 -379 -245 -500 -123 -252 -317 -648
-478 -975 -331 -676 -422 -863 -422 -871 0 -5 -4 -9 -10 -9 -5 0 -10 -6 -10
-12 0 -7 -48 -110 -106 -228 -58 -118 -142 -289 -187 -380 l-81 -165 -12 45
c-7 25 -31 106 -54 180 -23 74 -43 140 -44 145 -1 6 -9 30 -16 55 -8 25 -14
47 -15 50 0 3 -6 21 -13 41 -7 20 -14 45 -16 55 -2 10 -11 39 -19 64 -8 25
-29 92 -47 150 -17 58 -42 139 -55 180 -54 175 -77 251 -79 262 -2 14 -24 83
-33 108 -7 17 -10 28 -17 55 -2 11 -17 58 -31 105 -15 47 -29 94 -32 105 -3
11 -7 27 -11 35 -3 8 -6 17 -7 20 0 3 -9 32 -19 65 -10 33 -20 67 -21 75 -2 8
-13 41 -24 73 -11 31 -17 57 -14 57 3 0 1 6 -5 13 -5 6 -13 26 -16 43 -4 17
-21 74 -37 125 -17 52 -32 103 -35 114 -2 12 -12 47 -23 80 -17 52 -18 62 -6
85 8 14 57 115 111 225 140 289 299 614 398 815 47 96 86 180 86 186 0 7 4 14
9 16 7 2 48 84 117 233 8 17 19 37 24 45 5 8 57 114 116 235 58 121 133 273
165 338 32 64 55 117 51 117 -4 0 -2 4 4 8 7 4 26 39 43 77 17 39 35 77 41 85
10 17 79 157 118 240 14 30 31 58 37 62 5 4 7 8 3 8 -3 0 35 84 86 188 51 103
113 228 137 277 92 191 161 288 264 374 63 52 68 56 140 95 11 6 23 16 27 21
4 6 8 6 8 1 0 -5 6 -4 13 1 14 12 130 51 173 60 114 22 236 21 345 -2z m-4265
-1297 c5 -4 16 -3 24 2 7 4 18 6 24 4 6 -2 34 -6 61 -8 226 -23 475 -180 600
-381 40 -63 84 -160 100 -217 2 -5 3 -9 5 -10 1 -2 3 -10 5 -18 2 -8 13 -46
25 -85 43 -141 61 -200 65 -220 3 -11 9 -31 14 -45 6 -14 24 -72 42 -130 17
-58 38 -125 46 -150 8 -25 17 -54 19 -64 2 -11 11 -42 21 -70 9 -28 18 -54 19
-58 1 -5 3 -11 4 -15 1 -5 3 -12 4 -18 1 -5 5 -17 8 -25 7 -16 60 -188 64
-206 1 -6 18 -64 39 -130 20 -65 45 -146 54 -179 10 -33 20 -67 24 -75 11 -27
87 -288 87 -299 0 -9 -70 -154 -334 -694 -69 -142 -126 -262 -126 -268 0 -5
-4 -9 -10 -9 -5 0 -10 -5 -10 -11 0 -16 -112 -243 -124 -251 -6 -4 -8 -8 -4
-8 4 0 -17 -49 -47 -109 -30 -61 -55 -115 -55 -120 0 -6 -4 -11 -10 -11 -5 0
-10 -5 -10 -12 0 -10 -110 -244 -130 -278 -10 -15 -42 -80 -45 -90 -6 -21 -62
-127 -70 -132 -5 -4 -7 -8 -3 -8 3 0 -13 -38 -37 -84 -24 -47 -41 -87 -37 -90
3 -3 0 -6 -6 -6 -7 0 -12 -8 -12 -17 0 -29 -17 3 -36 67 -8 30 -33 114 -55
185 -22 72 -49 162 -61 200 -11 39 -22 77 -26 85 -3 8 -6 20 -8 25 -3 10 -57
189 -94 310 -10 33 -32 107 -50 165 -17 58 -34 112 -37 120 -3 8 -7 20 -8 25
-2 6 -17 57 -35 115 -18 58 -39 128 -47 155 -28 93 -40 130 -46 145 -4 8 -11
35 -17 60 -6 25 -12 50 -13 55 -1 6 -5 15 -9 20 -3 6 -13 35 -21 65 -8 30 -32
109 -52 175 -20 66 -38 125 -39 130 -2 6 -15 51 -31 100 -16 50 -30 95 -31
100 -1 6 -18 64 -39 129 -21 66 -38 125 -40 130 -1 6 -4 18 -7 26 -3 8 -16 49
-28 90 -12 41 -25 86 -30 100 -12 35 -78 253 -97 320 -9 30 -18 62 -20 70 -2
8 -4 17 -5 20 0 3 -4 13 -10 23 -5 10 -11 26 -13 35 -2 9 -20 71 -40 137 -66
212 -78 285 -71 428 3 59 8 112 11 117 4 6 8 23 11 38 9 54 91 242 106 242 4
0 8 5 8 11 0 25 156 199 179 199 5 0 11 4 13 8 7 17 164 111 198 118 3 0 12 4
20 7 31 13 147 40 190 44 25 3 46 6 47 7 5 5 38 0 49 -6z m1558 -3078 c1 -8 5
-22 8 -30 8 -20 49 -159 53 -174 1 -6 5 -18 8 -26 3 -8 18 -55 32 -105 48
-159 75 -249 90 -295 9 -25 17 -54 20 -65 4 -20 27 -94 80 -265 14 -47 28 -93
30 -103 2 -9 7 -22 10 -27 3 -5 8 -19 10 -31 2 -11 25 -89 51 -172 25 -83 48
-159 49 -169 2 -10 7 -23 10 -28 3 -5 8 -18 10 -27 2 -10 22 -79 45 -153 57
-185 80 -262 85 -280 2 -8 20 -67 40 -131 l35 -116 -146 -299 c-80 -165 -192
-393 -249 -509 -138 -284 -155 -318 -165 -335 -5 -8 -39 -78 -76 -155 -37 -77
-152 -313 -257 -525 l-189 -385 -30 95 c-16 52 -31 102 -33 110 -2 8 -4 16 -5
18 -2 1 -3 5 -4 10 -5 18 -50 166 -77 256 -17 54 -33 105 -34 115 -2 9 -4 16
-5 16 -1 0 -3 7 -5 15 -9 36 -77 257 -84 275 -5 11 -19 56 -31 100 -12 44 -24
87 -27 95 -4 8 -7 17 -8 20 0 3 -11 39 -24 80 -13 41 -24 80 -26 85 -1 6 -5
17 -8 25 -4 8 -8 24 -10 35 -2 11 -7 27 -10 35 -4 8 -18 53 -31 100 -14 47
-32 108 -41 135 -9 28 -18 57 -20 65 -8 35 -58 197 -66 215 -5 11 -11 31 -13
45 -3 14 -5 26 -7 28 -1 1 -2 5 -3 10 -2 4 -11 34 -21 67 -11 33 -19 62 -20
65 0 3 -11 39 -24 80 -13 41 -24 80 -26 85 -1 6 -5 17 -8 25 -15 41 -15 66 1
94 9 17 21 34 26 37 5 4 5 12 2 18 -4 6 -4 11 1 11 4 0 15 15 22 33 8 17 90
185 182 372 91 187 205 419 252 515 46 96 149 306 227 465 78 160 189 387 247
505 l105 215 24 -75 c13 -41 26 -82 28 -90z m-1335 -2610 c12 -41 24 -82 26
-90 2 -8 4 -15 5 -15 1 0 3 -7 5 -15 1 -8 26 -89 54 -180 29 -91 53 -172 56
-181 2 -9 18 -63 35 -120 18 -57 33 -108 35 -114 1 -5 5 -17 8 -25 6 -17 35
-120 38 -135 1 -5 6 -21 11 -35 9 -23 104 -329 133 -430 7 -25 36 -121 65
-215 74 -244 91 -299 94 -310 7 -28 48 -162 53 -175 3 -8 7 -19 8 -25 2 -5 13
-44 25 -85 34 -114 35 -108 -34 -247 -115 -233 -180 -368 -181 -375 0 -4 -6
-13 -12 -20 -7 -6 -13 -16 -13 -22 0 -15 -110 -235 -146 -293 -18 -28 -43 -64
-56 -79 -34 -41 -142 -144 -151 -144 -4 0 -17 -8 -27 -18 -50 -46 -238 -121
-345 -137 -55 -8 -191 -8 -245 0 -88 14 -107 19 -186 51 -259 103 -441 312
-513 589 -20 79 -27 199 -16 296 7 69 49 205 84 276 17 34 31 67 31 72 0 6 5
11 10 11 6 0 10 7 10 16 0 9 9 28 19 42 10 15 18 29 18 32 -1 5 29 68 253 525
187 382 288 590 300 617 6 13 14 30 20 38 5 8 50 98 99 200 49 102 153 316
231 475 78 160 146 301 151 314 13 32 21 20 48 -69z m2202 -226 c22 -71 42
-138 44 -148 4 -17 19 -67 31 -106 3 -8 5 -16 5 -17 0 -2 7 -22 15 -45 9 -24
17 -51 19 -60 4 -19 63 -215 72 -238 4 -8 7 -19 8 -25 0 -5 4 -17 7 -25 4 -8
19 -55 33 -105 15 -49 43 -142 63 -205 20 -63 36 -117 37 -120 1 -7 41 -139
79 -265 19 -60 48 -157 66 -215 17 -58 36 -116 42 -130 5 -14 12 -36 14 -50 3
-14 11 -45 19 -70 8 -25 14 -47 13 -50 -1 -3 4 -14 10 -26 6 -11 13 -32 16
-45 3 -13 24 -82 46 -154 23 -71 54 -173 69 -225 16 -52 50 -162 75 -245 26
-82 49 -157 51 -165 2 -8 14 -46 25 -85 12 -38 27 -90 35 -115 7 -25 17 -56
23 -70 5 -14 10 -27 9 -30 0 -3 15 -51 32 -107 18 -56 34 -110 36 -120 3 -17
31 -105 107 -348 17 -55 33 -105 34 -111 1 -5 19 -64 40 -130 40 -127 39 -125
47 -166 3 -14 10 -35 15 -45 5 -10 13 -36 17 -58 5 -22 10 -47 12 -55 2 -8 6
-62 7 -120 3 -92 -14 -220 -37 -285 -49 -134 -104 -227 -189 -316 -148 -156
-344 -251 -548 -265 -41 -3 -79 -5 -85 -6 -11 -1 -119 12 -148 18 -93 17 -261
93 -342 154 -68 52 -175 175 -218 251 -40 72 -137 338 -137 378 0 6 -4 19 -9
29 -8 15 -80 250 -85 277 -1 6 -17 57 -35 115 -68 218 -100 326 -107 355 -4
17 -9 35 -13 40 -3 6 -6 15 -7 21 -3 17 -46 157 -55 179 -5 11 -11 31 -13 45
-3 14 -5 26 -7 28 -1 1 -2 5 -3 10 -1 4 -13 41 -26 82 -13 41 -25 80 -26 85
-1 6 -19 64 -39 130 -46 146 -66 215 -69 235 -2 8 -6 22 -9 30 -10 25 -39 114
-42 130 -2 8 -4 16 -5 18 -2 1 -3 5 -4 10 -7 36 -31 109 -39 120 -5 6 -7 12
-5 12 3 0 -19 77 -47 172 l-52 171 23 46 c23 46 210 428 399 816 56 116 164
336 240 490 245 498 335 686 335 695 0 4 5 10 11 12 5 2 11 10 13 18 5 25 58
132 63 127 2 -3 22 -63 44 -133z"/>
</g>
</svg>
