<svg width="195" height="390" viewBox="0 0 195 390" xmlns="http://www.w3.org/2000/svg"><title>Wire Logo</title><g fill="#333435" fill-rule="evenodd" opacity=".03"><path d="M91.459 122.33l20.774 70.093 69.6-145.512a25.59 25.59 0 0 0 1.133-19.142c-2.109-6.297-6.467-11.386-12.273-14.332-3.428-1.71-7.067-2.578-10.815-2.578-9.347 0-17.693 5.368-21.782 14.008l-.01.02L91.46 122.33zm18.499 99.035l-29.626-99.959 48.43-101.208c2.903-6.132 7.4-11.237 13.004-14.765A33.961 33.961 0 0 1 159.878.195c5.337 0 10.506 1.23 15.363 3.655l.027.013c8.287 4.197 14.508 11.455 17.516 20.437a36.451 36.451 0 0 1-1.623 27.293l-.01.02-81.193 169.752zm-63.306-5.242l-33.749 70.774c-2.884 6.01-3.301 12.812-1.18 19.166 2.107 6.317 6.48 11.399 12.31 14.31l.026.012a23.505 23.505 0 0 0 10.709 2.57c4.495 0 8.898-1.27 12.736-3.673 3.945-2.47 7.103-6.044 9.133-10.333l10.788-22.744-20.773-70.082zM34.77 333.619h-.002c-5.342 0-10.487-1.233-15.291-3.664-8.325-4.163-14.567-11.42-17.575-20.434-3.023-9.06-2.425-18.764 1.684-27.327l45.328-95.057 29.633 99.971-12.573 26.507c-2.9 6.127-7.418 11.237-13.065 14.773a34.152 34.152 0 0 1-18.14 5.23z"/><path d="M41.117 49.81c-2.382 0-4.756.363-7.053 1.077C21.22 54.88 13.945 68.902 17.847 82.143l31.218 105.004 31.443-65.8-16.01-53.788c-1.542-5.233-4.634-9.693-8.947-12.911-4.179-3.12-9.305-4.837-14.434-4.837zm5.69 166.282L7.905 85.247C2.342 66.36 12.727 46.37 31.054 40.673a33.876 33.876 0 0 1 10.063-1.534c7.306 0 14.601 2.442 20.542 6.876 6.16 4.597 10.58 10.973 12.78 18.438l17.206 57.808-44.839 93.831zm31.913 71.28l21.96 74.22c1.539 5.224 4.63 9.683 8.942 12.9 4.18 3.119 9.305 4.836 14.434 4.837 2.383 0 4.756-.363 7.054-1.077 6.227-1.936 11.375-6.267 14.495-12.198 3.12-5.93 3.807-12.697 1.933-19.055l-37.37-125.44-31.448 65.813zM124.057 390h-.001c-7.306 0-14.6-2.442-20.541-6.874-6.16-4.598-10.58-10.973-12.778-18.438l-23.15-78.24 44.829-93.815 45.062 151.259c2.687 9.117 1.715 18.785-2.732 27.236-4.433 8.424-11.758 14.581-20.626 17.338A33.86 33.86 0 0 1 124.057 390z"/></g></svg>