<?xml version="1.0" encoding="UTF-8"?>
<svg width="32px" height="32px" viewBox="0 0 32 32" version="1.1" xmlns="http://www.w3.org/2000/svg" xmlns:xlink="http://www.w3.org/1999/xlink">
    <!-- Generator: sketchtool 50 (54983) - http://www.bohemiancoding.com/sketch -->
    <title>552B9F3E-7B5C-4E3C-AB6E-AA0BAFA1A939</title>
    <desc>Created with sketchtool.</desc>
    <defs></defs>
    <g id="Symbols" stroke="none" stroke-width="1" fill="none" fill-rule="evenodd">
        <g id="Icons-/-32px-/-close-/-grey" fill="#6B6B6B" fill-rule="nonzero">
            <g id="ic_close_32" transform="translate(9.000000, 9.000000)">
                <path d="M0.292890342,1.7071039 C-0.0976323609,1.31657802 -0.097629785,0.683413045 0.292896096,0.292890342 C0.683421976,-0.0976323609 1.31658695,-0.097629785 1.70710966,0.292896096 L13.7089651,12.2948492 C14.0994878,12.6853751 14.0994853,13.3185401 13.7089594,13.7090628 C13.3184335,14.0995855 12.6852685,14.0995829 12.2947458,13.709057 L0.292890342,1.7071039 Z" id="Line-2"></path>
                <path d="M1.7071039,13.7089651 C1.31657802,14.0994878 0.683413045,14.0994853 0.292890342,13.7089594 C-0.0976323609,13.3184335 -0.097629785,12.6852685 0.292896096,12.2947458 L12.2948492,0.292890342 C12.6853751,-0.0976323609 13.3185401,-0.097629785 13.7090628,0.292896096 C14.0995855,0.683421976 14.0995829,1.31658695 13.709057,1.70710966 L1.7071039,13.7089651 Z" id="Line-2"></path>
            </g>
        </g>
    </g>
</svg>