<svg width="146" height="37" viewBox="0 0 146 37" xmlns="http://www.w3.org/2000/svg"><title>Styleguide Heading</title><g fill="none" fill-rule="evenodd"><text transform="translate(20 10)" fill="#6B6B6B" font-family="AvenirNext-Medium, Avenir Next" font-size="14" font-weight="400" letter-spacing="4.667"><tspan x=".384" y="14">STYLEGUIDE</tspan></text><g fill="#333435"><path d="M8.911 11.606l2.024 6.65L17.717 4.45a2.37 2.37 0 0 0 .11-1.817 2.365 2.365 0 0 0-2.25-1.604c-.91 0-1.723.51-2.121 1.33l-.001.001-4.544 9.245zM10.714 21l-2.887-9.483 4.719-9.602A3.362 3.362 0 0 1 15.578.018c.52 0 1.024.117 1.497.347l.002.001a3.37 3.37 0 0 1 1.707 1.94 3.375 3.375 0 0 1-.158 2.589l-.001.002L10.714 21zm-6.168-.497l-3.289 6.714a2.356 2.356 0 0 0-.115 1.819c.206.599.632 1.081 1.2 1.357l.002.002a2.34 2.34 0 0 0 1.044.243c.438 0 .867-.12 1.24-.348.385-.235.693-.574.89-.98l1.052-2.158-2.024-6.649zM3.388 31.651c-.52 0-1.022-.117-1.49-.348a3.348 3.348 0 0 1-1.713-1.938 3.36 3.36 0 0 1 .164-2.593l4.417-9.018 2.887 9.484-1.225 2.515a3.356 3.356 0 0 1-1.273 1.402 3.394 3.394 0 0 1-1.767.496z"/><path d="M4.006 4.726A2.371 2.371 0 0 0 1.74 7.793l3.042 9.962 3.063-6.243-1.56-5.103a2.34 2.34 0 0 0-.871-1.224 2.411 2.411 0 0 0-1.407-.46zM4.561 20.5L.77 8.087a3.383 3.383 0 0 1 5.237-3.722c.6.437 1.03 1.042 1.245 1.75l1.676 5.484-4.368 8.902zm3.11 6.762l2.139 7.042c.15.495.451.918.871 1.224a2.37 2.37 0 0 0 2.094.357 2.382 2.382 0 0 0 1.412-1.158c.304-.562.371-1.204.188-1.808l-3.64-11.9-3.065 6.243zM12.087 37a3.432 3.432 0 0 1-2.002-.652 3.343 3.343 0 0 1-1.245-1.75l-2.256-7.422 4.368-8.9 4.391 14.35a3.353 3.353 0 0 1-.266 2.584 3.388 3.388 0 0 1-2.99 1.79z"/></g></g></svg>