<?xml version="1.0" encoding="iso-8859-1"?>
<svg xmlns="http://www.w3.org/2000/svg" xmlns:xlink="http://www.w3.org/1999/xlink">
    <defs>
        <symbol id="arrow" viewBox="0 0 40 40">
            <path d="M40,20.167c0-0.017-0.003-0.031-0.003-0.042c0.011-0.264-0.023-0.529-0.081-0.79c-0.014-0.059-0.025-0.117-0.039-0.174
                c-0.075-0.263-0.176-0.518-0.32-0.757c-0.022-0.033-0.045-0.059-0.065-0.09c-0.087-0.129-0.17-0.26-0.277-0.379
                c-0.065-0.073-0.143-0.129-0.213-0.194c-0.03-0.026-0.042-0.062-0.075-0.087L24.601,5.249c-1.297-1.124-3.262-0.983-4.385,0.316
                c-1.126,1.298-0.984,3.262,0.316,4.387l8.016,6.94H3.11c-1.717,0-3.11,1.393-3.11,3.11c0,1.717,1.393,3.11,3.11,3.11h25.626
                l-7.812,6.971c-1.28,1.141-1.393,3.11-0.249,4.39c0.616,0.687,1.465,1.039,2.322,1.039c0.739,0,1.476-0.26,2.07-0.79l13.898-12.402
                c0.12-0.107,0.221-0.229,0.32-0.351c0.023-0.028,0.047-0.047,0.07-0.078c0.174-0.227,0.309-0.479,0.414-0.739
                c0.011-0.028,0.033-0.044,0.039-0.07c0.011-0.033,0.009-0.062,0.02-0.095C39.921,20.727,39.986,20.45,40,20.167z"/>
        </symbol>
        <symbol id="arrowcircle" viewBox="0 0 40 40">
            <path d="M20,0C8.954,0,0,8.954,0,20s8.954,20,20,20s20-8.954,20-20S31.046,0,20,0z M30.626,20.529
                c-0.006,0.017-0.005,0.033-0.011,0.05c-0.004,0.014-0.015,0.023-0.021,0.037c-0.056,0.139-0.128,0.274-0.222,0.396
                c-0.012,0.016-0.025,0.027-0.037,0.042c-0.053,0.065-0.107,0.13-0.172,0.187l-7.448,6.647c-0.318,0.284-0.714,0.423-1.109,0.423
                c-0.459,0-0.914-0.188-1.244-0.557c-0.613-0.687-0.553-1.741,0.133-2.353l4.187-3.736H10.948c-0.92,0-1.667-0.747-1.667-1.667
                c0-0.92,0.747-1.667,1.667-1.667h13.633l-4.296-3.719c-0.697-0.603-0.773-1.655-0.169-2.351c0.602-0.696,1.655-0.772,2.35-0.169
                l7.678,6.647c0.017,0.013,0.024,0.033,0.04,0.047c0.037,0.035,0.078,0.065,0.113,0.104c0.057,0.064,0.102,0.134,0.148,0.203
                c0.011,0.017,0.024,0.031,0.035,0.048c0.078,0.128,0.132,0.265,0.172,0.406c0.008,0.031,0.014,0.062,0.022,0.093
                c0.031,0.14,0.048,0.282,0.043,0.423c0,0.007,0.002,0.014,0.002,0.022C30.71,20.239,30.675,20.387,30.626,20.529z"/>
        </symbol>
        <symbol id="check" viewBox="0 0 40 40">
            <path d="M14.545,34.546c-0.931,0-1.86-0.355-2.571-1.065L1.065,22.572c-1.42-1.42-1.42-3.722,0-5.144s3.722-1.42,5.142,0
                l8.338,8.338L33.793,6.519c1.42-1.42,3.726-1.42,5.142,0c1.42,1.416,1.42,3.722,0,5.142L17.116,33.479
                C16.411,34.19,15.476,34.546,14.545,34.546z"/>
        </symbol>
        <symbol id="checkcircle" viewBox="0 0 40 40">
            <path d="M20,0C8.954,0,0,8.954,0,20s8.954,20,20,20s20-8.954,20-20S31.046,0,20,0z M28.667,16.167l-10,10
                c-0.333,0.333-0.75,0.5-1.167,0.5s-0.833-0.167-1.167-0.5l-5-5c-0.667-0.667-0.667-1.667,0-2.333s1.667-0.667,2.333,0l3.833,3.833
                l8.833-8.833c0.667-0.667,1.667-0.667,2.333,0S29.333,15.5,28.667,16.167z"/>
        </symbol>
        <symbol id="close-x" viewBox="0 0 40 40">
            <path d="m25.45828,19.93546l12.81307,-12.83454c1.5332,-1.53515 1.5332,-4.02671 0,-5.56381c-1.5332,-1.53515 -4.02086,-1.5371 -5.55698,
            0l-12.81209,12.83356l-12.81112,-12.83356c-1.53417,-1.5371 -4.02183,-1.5371 -5.55698,0c-1.53417,1.53515 -1.53417,4.02964 0,5.56381l12.81209,
            12.83454l-12.81307,12.83454c-1.5332,1.53515 -1.5332,4.02671 0,5.56381c0.76709,0.76904 1.7723,1.15258 2.77849,1.15258c1.00521,0 2.0114,
            -0.38354 2.77849,-1.15258l12.81209,-12.83356l12.81112,12.83356c0.76709,0.76904 1.77328,1.15258 2.77849,1.15258c1.00424,0 2.0114,-0.38354 2.77849,
            -1.15258c1.5332,-1.53515 1.5332,-4.02867 0,-5.56381l-12.81209,-12.83454z"/>
        </symbol>
        <symbol id="down" viewBox="0 0 40 40">
            <path d="M20.333,31.667c-1,0-1.667-0.333-2.333-1L1,14c-1.333-1.333-1.333-3.333,0-4.667s3.333-1.333,4.667,0l14.667,14.333
                l14-14.333C35.667,8,37.667,8,39,9.333c1.333,1.333,1.333,3.333,0,4.667L22.667,30.667C22,31.333,21,31.667,20.333,31.667z"/>
        </symbol>
        <symbol version="1.1" id="ellipses" xmlns="http://www.w3.org/2000/svg" xmlns:xlink="http://www.w3.org/1999/xlink" x="0px" y="0px"
             viewBox="0 0 40 40" enable-background="new 0 0 40 40" xml:space="preserve">
            <g>
                <circle cx="4.8" cy="20" r="4.8"/>
                <circle cx="20" cy="20" r="4.8"/>
                <circle cx="35.2" cy="20" r="4.8"/>
            </g>
        </symbol>

        <symbol id="external" viewBox="0 0 40 40">
            <polygon points="36.666,36.666 3.334,36.666 3.334,3.333 13.333,3.333 13.333,0
                3.334,0 0,0 0,3.333 0,36.666 0,40 3.334,40 36.666,40 40,40 40,36.666 40,26.666 36.666,26.666"/>
            <polygon points="33.333,0 20,0 20,6.667 28.619,6.667 9.476,25.81 14.19,30.523
                33.333,11.381 33.333,20 40,20 40,6.667 40,0"/>
        </symbol>
        <symbol id="gear" viewBox="0 0 40 40">
            <path d="M39,16c-0.917-0.265-2.442-0.701-3.834-1.098c-0.149-0.042-0.465-0.133-0.478-0.136c-0.439-0.107-0.765-0.499-0.766-0.969
                c0-0.172,0.044-0.332,0.12-0.473c0.003-0.005,0.18-0.323,0.268-0.48c0.692-1.241,1.443-2.596,1.903-3.45
                c0.247-0.46,0.391-1.024,0-1.414L31.97,3.736c-0.391-0.391-0.902-0.283-1.414,0c-0.831,0.458-3.875,2.153-3.916,2.173
                c-0.374,0.187-0.84,0.128-1.152-0.183c-0.129-0.129-0.271-0.497-0.275-0.521C25.179,5.084,24.282,1.941,24,1c-0.15-0.5-0.448-1-1-1
                h-6c-0.552,0-0.838,0.437-1,1c-0.265,0.917-0.701,2.442-1.098,3.835c-0.048,0.169-0.151,0.501-0.151,0.501
                c-0.122,0.415-0.501,0.72-0.955,0.72c-0.168,0-0.325-0.042-0.464-0.115c-0.006-0.003-3.118-1.735-3.989-2.204
                c-0.46-0.247-1.024-0.391-1.414,0L3.686,7.979c-0.391,0.391-0.283,0.902,0,1.414c0.467,0.846,1.25,2.257,1.961,3.535
                c0.067,0.12,0.195,0.358,0.195,0.358c0.236,0.385,0.189,0.894-0.144,1.228c-0.132,0.132-0.724,0.339-0.86,0.377
                C3.456,15.283,1.941,15.718,1,16c-0.5,0.15-1,0.448-1,1v6c0,0.552,0.438,0.838,1,1c0.917,0.265,2.442,0.701,3.834,1.098
                c0.139,0.04,0.412,0.124,0.412,0.124c0.424,0.116,0.737,0.5,0.737,0.961c0,0.175-0.266,0.745-0.342,0.879
                c-0.706,1.266-1.485,2.669-1.956,3.545c-0.247,0.46-0.39,1.024,0,1.414l4.243,4.242c0.391,0.391,0.902,0.283,1.414,0
                c0.842-0.464,2.24-1.241,3.513-1.948c0.155-0.086,0.46-0.25,0.46-0.25c0.379-0.205,0.861-0.152,1.181,0.168
                c0.132,0.132,0.35,0.77,0.396,0.929C15.283,36.543,15.718,38.059,16,39c0.15,0.5,0.448,1,1,1h6c0.553,0,0.838-0.437,1-1
                c0.265-0.917,0.701-2.442,1.098-3.835c0.037-0.129,0.073-0.249,0.109-0.381c0.12-0.449,0.497-0.798,0.98-0.798
                c0.139,0,0.786,0.3,0.896,0.361c1.247,0.696,2.614,1.454,3.473,1.916c0.46,0.247,1.024,0.391,1.414,0l4.243-4.242
                c0.391-0.391,0.283-0.902,0-1.414c-0.455-0.826-1.212-2.187-1.908-3.44c-0.073-0.131-0.258-0.461-0.277-0.499
                c-0.191-0.376-0.134-0.845,0.18-1.159c0.117-0.117,0.788-0.353,0.955-0.4C36.543,24.716,38.059,24.282,39,24c0.5-0.15,1-0.448,1-1
                v-6C40,16.448,39.562,16.162,39,16z M20,26c-3.311,0-6-2.683-6-6s2.689-6,6-6c3.31,0,6,2.683,6,6S23.31,26,20,26z"/>
        </symbol>
        <symbol id="info" viewBox="0 0 17 17">
            <path d="M8.5,0C3.805,0,0,3.805,0,8.5C0,13.195,3.805,17,8.5,17c4.695,0,8.5-3.805,8.5-8.5C17,3.805,13.194,0,8.5,0z
                M10,12.024c0,0.825-0.675,1.5-1.5,1.5S7,12.849,7,12.024v-3c0-0.825,0.675-1.5,1.5-1.5s1.5,0.675,1.5,1.5V12.024z M8.5,6.476
                c-0.828,0-1.5-0.672-1.5-1.5s0.672-1.5,1.5-1.5s1.5,0.672,1.5,1.5S9.328,6.476,8.5,6.476z"/>
        </symbol>
        <symbol id="left" viewBox="0 0 40 40">
            <path d="M8.333,20.333c0-1,0.333-1.667,1-2.333L26,1c1.333-1.333,3.333-1.333,4.667,0C32,2.333,32,4.333,30.667,5.667L16.333,20.333
                l14.333,14C32,35.667,32,37.667,30.667,39S27.333,40.333,26,39L9.333,22.667C8.667,22,8.333,21,8.333,20.333z"/>
        </symbol>
        <symbol id="return" viewBox="0 0 40 40">
            <path d="M28.724,13.152H9.221l7.969-5.036c0.967-0.607,1.255-1.891,0.646-2.854c-0.612-0.966-1.893-1.255-2.855-0.643L0.965,13.475
                c-0.046,0.029-0.066,0.082-0.109,0.115c-0.187,0.139-0.341,0.304-0.472,0.497c-0.05,0.074-0.106,0.136-0.146,0.217
                c-0.13,0.257-0.211,0.538-0.223,0.842C0.015,15.167,0,15.184,0,15.204c0,0.003,0.002,0.005,0.002,0.008
                c0,0.004-0.002,0.006-0.002,0.01c0,0.326,0.091,0.624,0.225,0.898c0.038,0.079,0.096,0.139,0.144,0.213
                c0.127,0.194,0.276,0.36,0.459,0.501c0.043,0.033,0.062,0.087,0.108,0.117l14.014,9.204c0.35,0.229,0.743,0.339,1.134,0.339
                c0.674,0,1.336-0.328,1.732-0.932c0.628-0.953,0.361-2.24-0.594-2.865L8.983,17.29h19.741c3.935,0,7.138,3.203,7.138,7.137
                c0,3.938-3.203,7.135-7.138,7.135h-8.943c-1.142,0-2.068,0.927-2.068,2.068c0,1.146,0.926,2.073,2.068,2.073h8.943
                C34.943,35.703,40,30.646,40,24.427C40,18.212,34.943,13.152,28.724,13.152z"/>
        </symbol>
        <symbol id="right" viewBox="0 0 40 40">
            <path d="M31.667,19.667c0,1-0.333,1.667-1,2.333L14,39c-1.333,1.333-3.333,1.333-4.667,0s-1.333-3.333,0-4.667l14.333-14.667
                l-14.333-14C8,4.333,8,2.333,9.333,1S12.667-0.333,14,1l16.666,16.333C31.333,18,31.667,19,31.667,19.667z"/>
        </symbol>
        <symbol id="up" viewBox="0 0 40 40">
            <path d="M19.667,8.333c1,0,1.667,0.333,2.333,1L39,26c1.333,1.333,1.333,3.333,0,4.667s-3.333,1.333-4.667,0L19.667,16.333
                l-14,14.333C4.333,32,2.333,32,1,30.667S-0.333,27.333,1,26L17.333,9.333C18,8.667,19,8.333,19.667,8.333z"/>
        </symbol>
        <symbol id="settings-gear" viewBox="0 0 40 40">
            <path class="st0" d="M-336,303c-0.9-0.3-2.4-0.7-3.8-1.1c-0.1,0-0.5-0.1-0.5-0.1c-0.4-0.1-0.8-0.5-0.8-1c0-0.2,0-0.3,0.1-0.5
                c0,0,0.2-0.3,0.3-0.5c0.7-1.2,1.4-2.6,1.9-3.4c0.2-0.5,0.4-1,0-1.4l-4.2-4.2c-0.4-0.4-0.9-0.3-1.4,0c-0.8,0.5-3.9,2.2-3.9,2.2
                c-0.4,0.2-0.8,0.1-1.2-0.2c-0.1-0.1-0.3-0.5-0.3-0.5c0-0.1-0.9-3.3-1.2-4.2c-0.1-0.5-0.4-1-1-1h-6c-0.6,0-0.8,0.4-1,1
                c-0.3,0.9-0.7,2.4-1.1,3.8c0,0.2-0.2,0.5-0.2,0.5c-0.1,0.4-0.5,0.7-1,0.7c-0.2,0-0.3,0-0.5-0.1c0,0-3.1-1.7-4-2.2
                c-0.5-0.2-1-0.4-1.4,0l-4.2,4.2c-0.4,0.4-0.3,0.9,0,1.4c0.5,0.8,1.2,2.3,2,3.5c0.1,0.1,0.2,0.4,0.2,0.4c0.2,0.4,0.2,0.9-0.1,1.2
                c-0.1,0.1-0.7,0.3-0.9,0.4c-1.4,0.4-2.9,0.8-3.8,1.1c-0.5,0.1-1,0.4-1,1v6c0,0.6,0.4,0.8,1,1c0.9,0.3,2.4,0.7,3.8,1.1
                c0.1,0,0.4,0.1,0.4,0.1c0.4,0.1,0.7,0.5,0.7,1c0,0.2-0.3,0.7-0.3,0.9c-0.7,1.3-1.5,2.7-2,3.5c-0.2,0.5-0.4,1,0,1.4l4.2,4.2
                c0.4,0.4,0.9,0.3,1.4,0c0.8-0.5,2.2-1.2,3.5-1.9c0.2-0.1,0.5-0.2,0.5-0.2c0.4-0.2,0.9-0.2,1.2,0.2c0.1,0.1,0.4,0.8,0.4,0.9
                c0.4,1.4,0.8,2.9,1.1,3.8c0.1,0.5,0.4,1,1,1h6c0.6,0,0.8-0.4,1-1c0.3-0.9,0.7-2.4,1.1-3.8c0-0.1,0.1-0.2,0.1-0.4
                c0.1-0.4,0.5-0.8,1-0.8c0.1,0,0.8,0.3,0.9,0.4c1.2,0.7,2.6,1.5,3.5,1.9c0.5,0.2,1,0.4,1.4,0l4.2-4.2c0.4-0.4,0.3-0.9,0-1.4
                c-0.5-0.8-1.2-2.2-1.9-3.4c-0.1-0.1-0.3-0.5-0.3-0.5c-0.2-0.4-0.1-0.8,0.2-1.2c0.1-0.1,0.8-0.4,1-0.4c1.4-0.4,2.9-0.8,3.8-1.1
                c0.5-0.1,1-0.4,1-1v-6C-335,303.4-335.4,303.2-336,303z M-355,313c-3.3,0-6-2.7-6-6c0-3.3,2.7-6,6-6c3.3,0,6,2.7,6,6
                C-349,310.3-351.7,313-355,313z"/>
        </symbol>
        <symbol id="alert_grey" viewBox="0 0 40 40">
            <path d="M20,0A20,20,0,1,0,40,20,20,20,0,0,0,20,0" fill="#9c9ea1"/>
            <path d="M20,0A20,20,0,1,0,40,20,20,20,0,0,0,20,0" fill="#9c9ea1"/>
            <path d="M20,34a3,3,0,1,1,3-3,3,3,0,0,1-3,3" fill="#fff"/>
            <path d="M23,22a3,3,0,0,1-6,0V10a3,3,0,0,1,6,0V22Z" fill="#fff"/>
        </symbol>
        <symbol id="message" viewBox="0 0 40 40">
            <path d="M28.187,5H11.812C5.316,5,0,10.316,0,16.813s5.316,11.812,11.812,11.812h7.963l6.205,6.086
                c0.63,0.618,1.707,0.18,1.707-0.693v-5.392h0.5C34.684,28.625,40,23.309,40,16.813S34.684,5,28.187,5z"/>
        </symbol>
        <symbol id="note" viewBox="0 0 40 40">
            <path d="M34,0H6C4.896,0,4,0.895,4,2v36c0,1.104,0.896,2,2,2h28c1.105,0,2-0.896,2-2V2
                C36,0.895,35.105,0,34,0z M28,21.734H12c-1.657,0-3-1.343-3-3s1.343-3,3-3h16c1.657,0,3,1.343,3,3S29.657,21.734,28,21.734z
                M28,11.777H12c-1.657,0-3-1.343-3-3s1.343-3,3-3h16c1.657,0,3,1.343,3,3S29.657,11.777,28,11.777z"/>
        </symbol>
        <symbol id="print" viewBox="0 0 14 14">
            <path d="M11.435 9.968l1.865-7c.387 0 .7.26.7.576v5.85c0 .317-.313.574-.7.574h-1.278v-.43c0-.463-.348-.838-.778-.838H2.796c-.43 0-.778.375-.778.837v.43H.7c-.387 0-.7-.256-.7-.574v-5.85c0-.316.313-.575.7-.575h12.6l-1.865 7H2l.012 3.23c0 .428.347.775.774.775h8.466c.428 0 .774-.347.774-.775l-.012-3.23h-.58zm.33-4.078c-.426 0-.773-.347-.773-.774 0-.428.347-.774.774-.774.428 0 .774.346.774.774 0 .427-.346.774-.774.774zM12.01.767c0-.423-.346-.767-.774-.767h-8.45c-.428 0-.774.344-.774.767V2h9.998V.767zm-.575 9.2l-.12.447.12-.446z"/>
        </symbol>
        <symbol id="basic" width="16" height="16" viewBox="0 0 10 14">
            <path d="M7.55083333,6.20788359 L7.55083333,9.27068217 C7.55083333,10.6386949 6.43166667,11.7474704 5.05083333,11.7474704 C3.67,11.7474704 2.50671387,10.6386949 2.50671387,9.27068219 L2.50671387,6.20788361 L0.416666667,6.20788359 C0.186666667,6.20788359 0,6.39281711 0,6.62068162 L0,13.5728633 C0,13.8007278 0.186666667,13.9856614 0.416666667,13.9856614 L9.58333333,13.9856614 C9.81333333,13.9856614 10,13.8007278 10,13.5728633 L10,6.62068162 C10,6.39281711 9.81333333,6.2078836 9.58333333,6.2078836 L7.55083333,6.20788359 Z"/>
            <path d="M4.21012939,2.68736949 L4.21012942,9.32287975 C4.21012942,9.76280385 4.57061329,10.1198437 5.01658103,10.1198437 C5.46254877,10.1198437 5.83943666,9.76280382 5.83943666,9.32287972 L5.83943666,2.68736941 L7.29266247,4.08843203 C7.44911408,4.23985518 7.65233989,4.31556675 7.85556569,4.31556675 C8.06524311,4.31556675 8.27411408,4.2350734 8.43298505,4.07488364 C8.74346892,3.76008288 8.73782376,3.25560471 8.41846892,2.94797662 L5.61685602,0.246268842 C5.53621086,0.161790663 5.43943666,0.0948456918 5.32814634,0.0518096387 C5.2837915,0.0342764318 5.23621086,0.0334794679 5.19024311,0.0239159005 C5.13782376,0.0135553692 5.01819393,6.86766571e-06 5.01658103,6.86766571e-06 C4.81174232,-0.000790096281 4.54654771,0.0677487267 4.38928964,0.219968841 L1.57396706,2.94797643 C1.25541867,3.25560451 1.25057997,3.76087966 1.56267674,4.07488345 C1.87396706,4.38968421 2.38525739,4.38251163 2.70299933,4.07488354 L4.21012939,2.68736949 Z"/>
        </symbol>
        <symbol id="invite" viewBox="-177 142 21 14">
            <path d="M-167.2 145.5c0-1.9-1.6-3.5-3.5-3.5s-3.5 1.6-3.5 3.5 1.6 3.5 3.5 3.5 3.5-1.6 3.5-3.5zm-6.7 4.9c-1.7 0-3.1 1.6-3.1 3.5v2.1h12.6v-2.1c0-2-1.4-3.5-3.2-3.5h-6.3zM-156.7 144.8h-2.8V142h-2.1v2.8h-2.8v2.1h2.8v2.8h2.1v-2.8h2.8z"/>
        </symbol>
        <symbol id="waldo" viewBox="0 0 16 40">
            <path d="M16 16c0-2.2-1.8-4-4-4H4c-2.2 0-4 1.8-4 4v7.6c0 .3.1.5.3.7l2.2 2.2c.3.3.4.6.5 1l.7 8.4c.2 2.2 1.9 4 4.1 4.1 2.4.1 4.4-1.7 4.6-4l.7-8.5c0-.4.2-.7.5-1l2.2-2.2c.2-.2.3-.5.3-.7L16 16z"/>
            <circle cx="8" cy="5" r="5"/>
        </symbol>
        <symbol id="people" viewBox="0 0 20 15">
            <ellipse cx="5.44" cy="2.92" rx="2.95" ry="2.92"/>
            <path d="M3.3 7.24h3.22c1.83 0 3.3 1.48 3.3 3.3v2.04c0 .92-.73 1.66-1.64 1.66H1.65c-.9 0-1.65-.74-1.65-1.66v-2.03c0-1.83 1.48-3.3 3.3-3.3z"/>
            <ellipse cx="14.99" cy="4.13" rx="2.56" ry="2.52"/>
            <path d="M13.72 8.04h2.63c1.63 0 2.95 1.32 2.95 2.95v1.6c0 .8-.66 1.47-1.47 1.47h-5.58c-.82 0-1.47-.67-1.47-1.48V11c0-1.64 1.3-2.96 2.94-2.96z"/>
        </symbol>
    </defs>
</svg>
