<?xml version="1.0" encoding="UTF-8"?>
<svg width="21px" height="41px" viewBox="0 0 21 41" version="1.1" xmlns="http://www.w3.org/2000/svg" xmlns:xlink="http://www.w3.org/1999/xlink">
    <!-- Generator: Sketch 50.2 (55047) - http://www.bohemiancoding.com/sketch -->
    <title>Wire Logo</title>
    <desc>Created with Sketch.</desc>
    <defs></defs>
    <g id="Design" stroke="none" stroke-width="1" fill="none" fill-rule="evenodd">
        <g id="Desktop---Wide-Copy" transform="translate(-399.000000, -9.000000)" fill="#333435">
            <g id="Header">
                <g id="Logo">
                    <g id="Wire-Logo" transform="translate(399.000000, 9.000000)">
                        <g>
                            <path d="M9.84940577,12.8603282 L12.086603,20.2291299 L19.582032,4.9316984 C19.8885498,4.29827892 19.931977,3.58348738 19.7040845,2.91928149 C19.47693,2.25729546 19.0075936,1.72228931 18.3823483,1.41256424 C18.0131048,1.23275643 17.6212755,1.14163049 17.2176167,1.14163049 C16.21103,1.14163049 15.3122064,1.70587587 14.8719184,2.61422036 L14.870845,2.61641778 L9.84940577,12.8603282 Z M11.8415811,23.2716915 L8.65115326,12.763193 L13.8666734,2.12336454 C14.1792961,1.47873369 14.6635257,0.942045835 15.2670796,0.571174007 C15.8533477,0.210908127 16.5278343,0.0204943682 17.2176167,0.0204943682 C17.7923682,0.0204943682 18.3490511,0.149761363 18.8721461,0.404730139 L18.8749637,0.406097925 C19.7674812,0.847354678 20.4374059,1.61035508 20.7613662,2.55457591 C21.0863774,3.50186867 21.0243448,4.52089171 20.5865837,5.42392201 L20.5855551,5.42607459 L11.8415811,23.2716915 Z M5.0241048,22.7206082 L1.38956503,30.1609608 C1.07899973,30.7927434 1.03405185,31.5078938 1.26241394,32.1758667 C1.48941195,32.839938 1.96026902,33.3741818 2.58822006,33.6802071 L2.59101533,33.6815525 C2.95352786,33.86071 3.34153322,33.9515669 3.7442305,33.9515893 C4.22828123,33.9516117 4.70253734,33.8181068 5.11576718,33.5655149 C5.54062534,33.3058149 5.88075338,32.930167 6.09938795,32.4792012 L7.26116782,30.0881991 L5.0241048,22.7206082 Z M3.74431995,35.0727254 L3.74418578,35.0727254 C3.16885283,35.072703 2.61478627,34.9431221 2.09739361,34.6875255 C1.20082863,34.2499236 0.528667649,33.4871026 0.204707434,32.5394062 C-0.120840492,31.5870011 -0.0564599124,30.5667448 0.386064329,29.6665622 L5.26760606,19.6733603 L8.45874947,30.1831593 L7.10476707,32.9698104 C6.79252461,33.6139255 6.30590224,34.1511067 5.69776405,34.5228082 C5.10917035,34.8825807 4.43369978,35.0727254 3.74431995,35.0727254 Z" id="Fill-1"></path>
                            <path d="M4.42795859,5.23652276 C4.17140955,5.23652276 3.91584516,5.27459888 3.66838185,5.34967413 C2.28529067,5.76945382 1.50181351,7.24349554 1.921973,8.63555131 L5.2838755,19.6743952 L8.67008123,12.7569716 L6.94600629,7.10236484 C6.77991181,6.55220192 6.44687248,6.08335183 5.98244799,5.74501958 C5.53236822,5.41712069 4.98030887,5.23652276 4.42795859,5.23652276 Z M5.04068652,22.7174109 L0.851399915,8.96181228 C0.252166329,6.97640176 1.37062976,4.87492302 3.34422685,4.27591407 C3.69691465,4.16891053 4.06153029,4.11465711 4.42795859,4.11465711 C5.21474779,4.11465711 6.00041806,4.37133997 6.64017941,4.83743027 C7.30363978,5.32077487 7.77958928,5.9910896 8.01648986,6.77585706 L9.86942117,12.8531155 L5.04068652,22.7174109 Z M8.47753517,30.2108677 L10.8424233,38.0134209 C11.0081821,38.5626639 11.3411543,39.0314242 11.8054892,39.3697116 C12.2555242,39.6975431 12.8075388,39.8781186 13.3598891,39.8781411 L13.3599339,39.8781411 C13.6164829,39.8781411 13.8720473,39.8400425 14.1195554,39.7649224 C14.7901321,39.5614608 15.3444965,39.1060956 15.680557,38.48263 C16.016595,37.8592541 16.0905118,37.1478118 15.8886786,36.4793593 L11.8642109,23.2920754 L8.47753517,30.2108677 Z M13.3599562,41.0000067 L13.3598444,41.0000067 C12.5730775,40.9999843 11.7874744,40.7433014 11.1477578,40.2773009 C10.4843422,39.7940012 10.0084822,39.1237313 9.77162639,38.3389638 L7.27866518,30.113759 L12.1063033,20.2511239 L16.9591398,36.1527394 C17.2485183,37.1112389 17.1438757,38.127537 16.664905,39.0160322 C16.1875233,39.9016554 15.3986753,40.548927 14.4437104,40.8386825 C14.0910673,40.9457309 13.7264069,41.0000067 13.3599562,41.0000067 Z" id="Fill-4"></path>
                        </g>
                    </g>
                </g>
            </g>
        </g>
    </g>
</svg>